<svg id="Women" xmlns="http://www.w3.org/2000/svg" viewBox="0 0 516.84 197.32">
  <defs>
    <style>
      .cls-1{fill:#ffffff;}
    </style>
  </defs>
  <title>
    CourageousWomen_logo
  </title>
  <path class="cls-1" d="M83.45 141.92a89.29 89.29 0 0 0-2.2 11.27q-.79 5.95-1.1 11.58t-.31 10.33q0 9.39 4.39 9.39 4.07 0 10.35-7.82 3.45 10 9.57 15.34t12.39 5.32a16.48 16.48 0 0 0 6.43-1.56 20.92 20.92 0 0 0 6.74-4.85 28 28 0 0 0 5.33-8.45 30.67 30.67 0 0 0 2.2-12.05 38.32 38.32 0 0 0-5.49-19.25q-5.49-9.54-10.19-17.06a2.14 2.14 0 0 0-1.57-.63q-.94 0-.94 1.88v.31q4.39 8.14 8.62 16.75a40.29 40.29 0 0 1 4.23 18 25.12 25.12 0 0 1-1.25 7.67 26.05 26.05 0 0 1-3.45 7 23.37 23.37 0 0 1-4.86 5.16 9 9 0 0 1-5.49 2 10.07 10.07 0 0 1-6.59-2.66 27.4 27.4 0 0 1-5.49-6.42 51.81 51.81 0 0 1-4.08-8 26.89 26.89 0 0 1-2-7.67 2.83 2.83 0 0 0-2.51-1.88 3.15 3.15 0 0 0-2.67 1.72 35.24 35.24 0 0 0-2.2 4.07 23.57 23.57 0 0 1-2.67 4.38 10.12 10.12 0 0 1-3.45 3 42.73 42.73 0 0 1-.94-10 112.49 112.49 0 0 1 1.72-19.09 74.65 74.65 0 0 1 4.55-16.59v-.31c0-1-.42-1.57-1.25-1.57a2.71 2.71 0 0 0-1.88.94 40.08 40.08 0 0 0-3.94 9.75zM199.97 149.59a21.9 21.9 0 0 0-7.21-1.1 65 65 0 0 0-11 1.1 59.42 59.42 0 0 0-12.07 3.44 29.38 29.38 0 0 0-9.88 6.42 13.6 13.6 0 0 0-4.08 10q0 5.33 5.65 9.23t14.43 3.91a79.52 79.52 0 0 0 12.07-.94 68.72 68.72 0 0 0 11.29-2.66 38.08 38.08 0 0 0 8.78-4.07q3.6-2.35 4.23-4.85 0-.62-.16-3a7.19 7.19 0 0 0-.78-3.29 18.9 18.9 0 0 0-5-3 74.58 74.58 0 0 0-8.15-3.13q-4.4-1.41-8.31-2.35a28.86 28.86 0 0 0-5.17-.94c-1 0-1.57.42-1.57 1.25q0 .94 3.76 2.5t8.47 3.29a82.93 82.93 0 0 1 8.47 3.6q3.76 1.88 3.76 3.76a46.32 46.32 0 0 1-12.7 5.79 51.87 51.87 0 0 1-15.21 2.35 37.24 37.24 0 0 1-5.8-.47 31.77 31.77 0 0 1-5.68-1.33 10.6 10.6 0 0 1-4.39-2.82 6.67 6.67 0 0 1-1.72-4.69q0-2.82 3.14-5.48a34.85 34.85 0 0 1 7.84-4.85 60.23 60.23 0 0 1 10-3.6 38.33 38.33 0 0 1 9.72-1.41q7.53 0 10 3.44a2.71 2.71 0 0 0 1.88.94c.83 0 1.25-.63 1.25-1.88a.92.92 0 0 0-.31-.63 12.09 12.09 0 0 0-5.55-4.53zM237.44 164.77a104.2 104.2 0 0 1 1.72 19.41v.63a2.28 2.28 0 0 0 2.51 2.19 2.73 2.73 0 0 0 2.2-1.25h.63v-.95a85 85 0 0 1 2-8.29 60 60 0 0 1 3.61-9.39 32.73 32.73 0 0 1 5.17-7.82 10.63 10.63 0 0 1 7.37-3.6 8.19 8.19 0 0 1 2.51 5q.62 3.45.94 7a48.37 48.37 0 0 0 .94 6.42q.62 2.82 3.14 2.82a6.94 6.94 0 0 0 3.45-1.1 36.08 36.08 0 0 0 5.33-4.23 38.63 38.63 0 0 0 3.61-3.29 50.16 50.16 0 0 1 3.92-3.6 17 17 0 0 1 .94 4.07q.31 2.51.47 5a17.05 17.05 0 0 0 .78 4.38q.62 1.88 1.57 1.88c1 0 1.57-.42 1.57-1.25q0-9.7-1.41-13.93t-3-4.23q-2.2 0-5.65 2.66t-10 7.67a30.29 30.29 0 0 1-.65-6.47 32.54 32.54 0 0 0-.78-7.2 15.55 15.55 0 0 0-2.51-5.79q-1.73-2.35-5.49-2.35a10.32 10.32 0 0 0-5.8 2 31.33 31.33 0 0 0-5.65 5 55.54 55.54 0 0 0-4.86 6.26 29.45 29.45 0 0 0-3.14 5.79 58.07 58.07 0 0 0-4.39-11.89 51.36 51.36 0 0 0-7.53-11 1.28 1.28 0 0 0-.94-.31c-1.25 0-1.88.42-1.88 1.25a1.24 1.24 0 0 0 .16.78.63.63 0 0 1 .16.47q7.25 8.19 8.98 17.26zM364.93 174.16h-.31l-12.51 4.34q-2.2.63-7.37 2a37.62 37.62 0 0 1-9.88 1.41q-8.78 0-8.78-6.26a11 11 0 0 1 1.88-6.26 89.86 89.86 0 0 0 17.72-8.14q7.68-4.7 7.68-11a4.33 4.33 0 0 0-2.2-4.07 8.36 8.36 0 0 0-4.08-1.25q-6 0-11.92 5.95a62.12 62.12 0 0 0-10.66 14.71q-3.46.94-6.59 1.72a23.5 23.5 0 0 1-5.65.78 9.72 9.72 0 0 1-4.39-.94 7.4 7.4 0 0 0-3.14-.94 1.39 1.39 0 0 0-1.62 1.69 1.82 1.82 0 0 0 .31 1.25 17.24 17.24 0 0 0 10 2.82 43.7 43.7 0 0 0 8.47-.94 27.76 27.76 0 0 0-.94 3.44 15.81 15.81 0 0 0-.31 3.13 7.89 7.89 0 0 0 3.14 6.73q3.13 2.35 11.29 2.35a36.94 36.94 0 0 0 8-1.25q5.18-1.25 10.35-3a78.26 78.26 0 0 0 9.1-3.6q3.92-1.88 3.92-3.13a1.39 1.39 0 0 0-1.51-1.54zm-23.82-20.35q3.13-3.13 5-3.13c.21 0 .31.05.31.16s.1.16.31.16h.31q-2.82 3.45-3.92 4.85a26.84 26.84 0 0 1-5.17 4.23l-6 2.82a61.62 61.62 0 0 1 9.16-9.09zM390.96 158.66q.62 5.48 1.1 11.11a62.69 62.69 0 0 0 1.57 10q1.1 4.39 4.86 4.38h1.57a27.5 27.5 0 0 0 5.65-6.26q2.51-3.76 4.7-7.2a33.8 33.8 0 0 1 4.55-5.79 7.2 7.2 0 0 1 5.17-2.35 8.18 8.18 0 0 1 6.27 2.35 19.38 19.38 0 0 1 3.61 5.63q1.41 3.29 2.82 6.73a14.68 14.68 0 0 0 3.92 5.63H438a1.11 1.11 0 0 0 1.25-1.25q0 .32-1.57-3.13a41.84 41.84 0 0 1-2.2-5.63 83.73 83.73 0 0 0-5.33-11.11q-3.14-5.47-11-5.48a8 8 0 0 0-6.12 2.5 44.65 44.65 0 0 0-4.55 5.79q-2.2 3.29-4.23 6.73a19.74 19.74 0 0 1-4.86 5.63 40.11 40.11 0 0 1-1.25-6.57 82.43 82.43 0 0 0-1.88-9.55 48.07 48.07 0 0 0-3.14-8.76q-1.88-3.91-4.7-3.91c-1 0-1.57.63-1.57 1.88a1.72 1.72 0 0 0 .63.94q2.85 2.22 3.48 7.69zM26.37 101.36q0 4.77-1.67 7.09t-5.73 2.31q-7.83 0-7.83-9.4v-81q0-9.25 7.83-9.25 4.2 0 5.8 2.24t1.59 7v21h10V20.24Q36.36 0 18.97 0q-19 0-19 20.53v81q0 20.1 19 20.1 9.13 0 13.26-5t4.13-15.4v-24.6h-10v24.73zM70.72 0q-18.7 0-18.7 20.24v81.12q0 20.25 18.7 20.24t18.84-20.24V20.24Q89.57 0 70.72 0zm7.83 101.36q0 9.4-7.83 9.4t-7.68-9.4V20.24q0-9.11 7.68-9.11t7.83 9.11v81.12zM132.61 101.36q0 9.4-7.68 9.4t-7.68-9.4V1.3h-11v100.06q0 20.25 18.7 20.24t18.7-20.24V1.3h-11v100.06zM196.53 92.32q-2.47-14-5.36-28.41 8.84-4.48 8.84-17.5V22.7q0-11.71-5.15-16.56T179.28 1.3h-18.12v119h11V66.37h7.25a6.7 6.7 0 0 0 1.3-.14q2.46 13.59 4.49 26.82t3.91 27.25h12q-2.12-14.02-4.58-27.98zm-7.68-45.76q0 5.06-2.17 7.45t-7.25 2.39h-7.25v-44h7.1q5.8 0 7.68 2.6t1.88 9.11v22.45zM242.04 1.3h-12.93l-16.38 119h10.73l2.61-20h17.83l2.61 20h11zM227.4 90.23q2-15.32 4-30.29t3.84-30.73q1.74 15.76 3.62 30.73t3.77 30.29H227.4zM308.11 121.02V64.78h-19.69v10.41h9.13v27q-.73 8.53-8.55 8.53a7.13 7.13 0 0 1-5.51-2.39q-2.17-2.39-2.17-7v-81q0-4.63 1.81-6.94t6-2.31q4.49 0 6.38 2.31t1.88 6.94v21h9.86v-21q0-10-4.28-15.18T289.11 0q-9.57 0-14.2 5.21t-4.64 15.18v81a28.85 28.85 0 0 0 1.38 9.54 16.44 16.44 0 0 0 3.77 6.29 13.57 13.57 0 0 0 5.65 3.4 24.16 24.16 0 0 0 7.17 1 20.86 20.86 0 0 0 8.84-1.81 11.4 11.4 0 0 0 5.65-5.28l3.62 6.51h1.76zM357.41 120.3v-10.84H336.1V65.21h14.5V54.22h-14.5V12.44h20.59V1.3h-31.6v119h32.32zM390.74 0q-18.7 0-18.7 20.24v81.12q0 20.25 18.7 20.24t18.84-20.24V20.24Q409.58 0 390.74 0zm7.83 101.36q0 9.4-7.83 9.4t-7.68-9.4V20.24q0-9.11 7.68-9.11t7.83 9.11v81.12zM452.63 101.36q0 9.4-7.68 9.4t-7.68-9.4V1.3h-11v100.06q0 20.25 18.7 20.24t18.7-20.24V1.3h-11v100.06zM505.82 101.94q0 4.34-1.81 6.58t-6 2.24q-4.35 0-6-2.89a14.94 14.94 0 0 1-1.67-7.52V76.63h-10.61v25.3q0 9.54 4.42 14.6t14.13 5.06q10 0 14.28-5.06t4.28-14.6V84.87q0-3.47-.22-6.22a27.69 27.69 0 0 0-.8-4.92 18.74 18.74 0 0 0-1.59-4 22.19 22.19 0 0 0-2.61-3.76 106.26 106.26 0 0 0-9.2-9.69 83.11 83.11 0 0 1-8.91-9.69 11.44 11.44 0 0 1-2.1-3.76 21.34 21.34 0 0 1-.51-5.49V19.66q0-8.53 7.68-8.53 4.49 0 6 2.75a14.89 14.89 0 0 1 1.53 7.23v20.24h10.29V19.66q0-10-4.06-14.82T498.28 0q-18.55 0-18.55 19.66v17.79a61.69 61.69 0 0 0 .51 8.6 13.34 13.34 0 0 0 3.41 6.87q2.61 3.18 5 5.71t4.71 4.77q2.32 2.24 4.49 4.48t4.35 4.84q1 1.3 1.74 2.39a10 10 0 0 1 1.17 2.39 13.1 13.1 0 0 1 .58 3q.14 1.74.14 4.48v16.92z"/>
</svg>
