<svg width="268" height="268" viewBox="0 0 268 268" xmlns="http://www.w3.org/2000/svg"><title>Fill 15</title><path d="M252.716.553H15.284C7.146.553.554 7.146.554 15.283v237.434c0 8.135 6.592 14.73 14.73 14.73H143.11V164.092h-34.782v-40.28h34.78V94.107c0-34.473 21.055-53.244 51.808-53.244 14.73 0 27.39 1.097 31.08 1.587v36.026l-21.33.01c-16.723 0-19.96 7.947-19.96 19.61v25.716h39.885l-5.193 40.28h-34.692v103.355h68.01c8.136 0 14.73-6.595 14.73-14.73V15.283c0-8.137-6.594-14.73-14.73-14.73" fill="#FFF" fill-rule="evenodd"/></svg>