<svg id="Layer_1" data-name="Layer 1" xmlns="http://www.w3.org/2000/svg" viewBox="0 0 361.68 304.64"><defs><style>.cls-1{fill:#ffffff;}</style></defs><title>forsuchatime</title><path class="cls-1" d="M92.73 164.31l33.87-11.64c-4.7-5.67-7.3-11.16-3.14-17.64a12.57 12.57 0 1 1 15.34 18.36c-14.54 6.19-29.09 12.34-43.55 18.69-1.49.65-3.29 2.48-3.47 3.95q-2.86 23-5.16 46c-1 10.06 3.89 18.63 7.66 27.41a28.51 28.51 0 0 0 5 7.43c4.79 5.4 11.15 5.24 14.95-1a50.79 50.79 0 0 0 6.76-16.45c1.45-7.73 1.49-15.76 1.64-23.67.2-10.49-.18-21-.09-31.49.05-6.31 4.44-10.21 10.61-9.89 6 .31 9.54 4.88 9.26 11.25-.68 15.29-1.35 30.59-1.58 45.9-.07 4.4 1 8.91 2.2 13.22 1.25 4.66 3.66 5.25 6.38 1.21a165.2 165.2 0 0 0 10.43-18.64 52.88 52.88 0 0 0 5.24-31.42c-1.09-8.06-.92-16.29-1.24-24.44-.17-4.32 2-7 6.21-7.7 3.68-.61 7 2.64 7.57 7q1.65 12.55 3.31 25.1l1.22.05c.71-5.37 1.1-10.81 2.22-16.09 1.31-6.16 3.08-12.23 5-18.24 1.85-5.81 6.05-9 12.19-9.44s10.78 2.64 13.22 8 3.74 10.95 5.81 17.26c1-5.39 1.77-10.31 3-15.11s2.24-9.78 4.34-14.21c4.24-8.92 13.29-13.46 21.58-11.6 7.3 1.64 13.23 9.47 13 19.14-.2 10.77-1.44 21.53-2.36 32.29-.63 7.35-1.49 14.69-2.24 22l1.74.61c2.64-3.73 5.63-7.26 7.83-11.24 3.39-6.1 6.87-12.28 9.12-18.84 1.84-5.37 2-11.32 2.8-17 2-14.92 6.74-28.63 18.82-38.48 15-12.26 31.46-6.36 35.87 12.59 3.87 16.59-4.53 32-20.5 37.23-7.33 2.41-14.34 1.27-21-3.2 2.24 15.25 14.66 21.77 29.5 16.08 11.31-4.33 18.75-13 25.49-22.41 3.68-5.11 6.57-10.79 9.93-16.14a19.44 19.44 0 0 1 2.93-3l1.27.72a24.77 24.77 0 0 1-.71 4.62c-5.49 15.62-12.14 30.63-23.34 43.19-7.41 8.31-15.77 14.8-27.56 15.11-12.07.31-20.61-5.29-26.3-15.66-1-1.73-1.83-3.5-2.77-5.25a1.21 1.21 0 0 0-.52-.17c-2.31 6.81-4.21 13.81-7.06 20.39a43.21 43.21 0 0 1-7.83 12c-7.51 8.11-18.4 6-21.49-4.66-2.29-7.87-2.85-16.31-3.52-24.54-.56-7-.15-14-.22-21 0-1.93-.22-3.86-.33-5.79l-1.23-.46a74.14 74.14 0 0 0-4.37 6.74c-7.36 14.43-10.51 30.07-12.88 45.91-.61 4.11-.77 8.28-1.2 12.42-.58 5.54-4.2 9-9 8.74s-7.9-4-7.93-9.66c-.05-12 .22-24-.16-36-.21-6.55-1.47-13.06-2.25-19.59l-1.85-.24c-1.81 5.38-4.11 10.64-5.34 16.15-3.9 17.51-6.82 35.18-6.58 53.22.07 5.08-4 9.32-9.44 9.9a9.62 9.62 0 0 1-10.32-7.5c-.61-3-.76-6.1-1.18-9.66-2.85 6.23-5.14 12.07-8.14 17.52-2.76 5-7 8.37-13.24 8.43a13.91 13.91 0 0 1-12.56-6.79c-1.17-1.8-2.3-3.63-3.86-6.09-1.09 3.25-1.92 6-2.91 8.64-3.31 8.87-9 15.29-18.83 16.49-9.11 1.11-16-3.43-21.61-10.13-12.63-15-16.93-33.3-20.62-51.79-1.72-8.59-2.59-17.36-3.92-26.58-9.57 3.43-19.06 6.82-28.53 10.23-7.19 2.59-14.35 5.28-21.57 7.79-5 1.74-8.93.1-10.13-4-1.31-4.48.6-7.69 5.82-9.25 16.74-5 33.47-10 50.28-14.7 3.12-.88 4.15-2.16 4.24-5.42.35-12.32.63-24.76 5.81-36.24a39.64 39.64 0 0 1 7.84-11.94c7.22-7.08 15.49-4.44 17.06 5.48 1.14 7.18 1 14.57 1.26 21.88.15 4.93.01 9.93.01 15.75zm196.39-6.35c.81 7.94 1.84 9 9.36 8.71 12.9-.42 20.6-12.76 16.52-26.47-2.11-7.09-6.17-9.29-12.75-5.83a20.16 20.16 0 0 0-8.34 8.07c-2.41 4.77-3.26 10.31-4.79 15.52zm-210.69 9.53l1.28 1.14c2.24-1.69 6.28-3.25 6.41-5.09.72-10.37.67-20.81.49-31.22 0-2.33-1.62-4.64-2.5-7l-1.67.33c-5.16 13.57-3.73 27.78-4.01 41.84zm2.9 23.27l3.08-14c-5.91 1.68-6.25 2.96-3.07 13.99z"/><path class="cls-1" d="M116.86 90.03c4-3.25 8.81-7 13.38-11.09.9-.8 1-2.68 1.17-4.09 1.33-9.66 3.42-19.12 10.27-26.52 4.5-4.86 9.62-9.08 17-5.05a3.89 3.89 0 0 0 2.42.21c5.72-1.13 10.11.78 13.06 5.93 1.24-2.72 1.79-5.78 3.61-7.39a12.69 12.69 0 0 1 7.64-2.73c6.57-.12 6.14 5.71 7.68 11.1 4.92-1.93 9.63-3.71 14.29-5.63 2.45-1 4.74-3 7.22-3.23s5.86.5 7.3 2.16c1.24 1.43 1.3 5.46.13 7.12-5.71 8.13-7.18 17.13-6.26 26.6.27 2.83 2.31 5.48 3.53 8.22 2.22-1.84 5.21-3.25 6.5-5.6 3.27-5.94 5.77-12.29 8.59-18.47.48-1 1.05-2.05 1.91-3.72.58 1.34 1 1.86.91 2.15-3.37 8.47-6.09 17.3-10.4 25.26-4.52 8.35-12 7.65-16.11-1a49.51 49.51 0 0 1-3.32-11.4c-.77-3.87-1-7.86-1.42-11.81-4.73.3-9.47.47-14.18 1-.85.1-2 1.61-2.2 2.62-1.61 9.23-6.73 15.57-15.11 19.64a9.93 9.93 0 0 0-4 4.51c-3.36 6.9-7.5 13-15 16-8.73 3.51-17 .65-20.92-7.86-2-4.24-2.79-9-4.43-14.56-2.41 3.82-4.92 7.2-6.82 10.9-6.3 12.29-7.73 25.72-8.55 39.21-.26 4.25-1.43 7.48-6 7.53-4.77.05-6.08-3.74-6-7.62.21-16 .42-32 1.07-47.94q.8-18.99 2.68-37.86a246 246 0 0 1 4.21-29.52c1.1-5 4-9.86 7.18-14 1.54-2 5.89-3.66 8.14-2.92 2.1.68 4.2 4.65 4.4 7.31 1.27 17.27-3 33.7-8.93 49.72-4.23 11.28-4.33 23-4.64 32.82zm30.76-22.71c-3.82 6.48-5.51 17.71-3.81 23.87 1.26 4.56 3.87 6.26 8.59 5.18 6.24-1.43 10.16-5.61 13.21-11.26-9.37-2.8-15.06-8.78-17.99-17.79zm21.4 8.87c2.08-10 2-17-.54-21.79a5.86 5.86 0 0 0-3.45-2.92c-.91-.15-2.59 1.4-3.16 2.57-3.14 6.49.52 17.99 7.15 22.14zm-49.32-34c4.48-11.9 10.13-23.62 5.47-36.83-5.62 11.71-5.67 24.28-5.47 36.85zm57.1 13.65l-1.3 20.22.86.85c3-2.95 6.4-5.57 8.75-8.94 2.15-3.1 2.9-6.76-2.51-8.38-2.1-.63-3.82-2.41-5.8-3.73zm11.13-5.53l2.21-2.11c-1.38-1.87-2.58-3.95-4.28-5.45-.36-.32-2.56 1.46-3.92 2.27zM295.28 267.16l3.88-9.51 1.34.52c-2.54 6.24-4.33 12.95-7.82 18.6-3.61 5.85-10.61 5-15.68-.67-2.71 3.6-4.71 8.75-8.36 10.57-6.26 3.12-7.41-3.88-10.3-8.07-1.38 3.51-2 7-4 9.58-1.77 2.38-4.77 5-7.43 5.27-4.07.35-4.9-4-5.34-7.21-.81-6-1.13-12.12-2.7-18.7-1.22 1.76-3 3.37-3.55 5.32-1.92 7.35-3.34 14.83-5.11 22.23-.49 2-1.09 4.56-2.55 5.69-.85.66-3.5-1-5.64-1.72-7.77 8.25-15 7.54-20.1-3.53-3.2-7-4.52-14.83-6.59-22.32-.52-1.9-.7-3.89-1.13-6.41-6.07 2.21-11.8 4.31-17.54 6.39-1.41.51-2.84 1.32-4.26 1.3s-2.52-1-3.78-1.54c.78-1.24 1.3-3.23 2.37-3.6 6.27-2.18 12.64-4.14 19.06-5.84 3.25-.86 4.14-2.4 4.5-5.78a64.92 64.92 0 0 1 3.95-15.75c.63-1.68 3.82-2.4 5.85-3.55 1.08 1.89 2.89 3.71 3.1 5.69.47 4.41.15 8.91.15 13.71 1.86-.31 3.14-.55 4.43-.74 4.89-.73 7.23-2.73 6.94-8.48-.24-4.75 1.54-9.74 3.12-14.38a6.2 6.2 0 0 1 4.82-3.38c1.31.06 3 2.66 3.6 4.44.82 2.47.6 5.26 1.11 7.86 1.6 8.19-1.56 15.83-2.52 23.73-.44 3.6-.65 7.22-1 10.84l1.28.23c.72-3.2 1-6.55 2.25-9.56 1.44-3.59 3-7.53 5.63-10.17 4-4 10-2.28 11.29 3.3 1 4.58.62 9.53.56 14.31 0 3.62-.54 7.24-.13 11.13 4.61-5 8.15-10.43 8.49-17.37.23-4.65-.52-9.37 0-14 .2-1.83 2.62-3.41 4-5.11 1.34 1.78 3.74 3.5 3.84 5.35.4 7.43 0 14.91.11 22.36 0 1.35.74 2.69 1.37 4.8 5.5-5.29 7.51-11.41 8.94-17.68s2.06-12.5 3.58-18.62c.38-1.52 2.77-3.32 4.39-3.48 1.2-.12 4 2.42 3.78 3.38-1.37 8.15 4.34 13.32 7.8 20.57zm-76.78-8.59c-10.24 2.86-10.23 2.86-11.29 12.57a76.09 76.09 0 0 1-1.18 8.88c-1.53 6.47 1.27 11.75 4.47 16.81 2.11 3.35 5.27 3.28 6.93-.32s3.2-7.88 3.14-11.83c-.15-8.6-1.33-17.19-2.07-26.11zm61.57-1.26l-1.41.1c0 4.42-.52 8.92.22 13.21.36 2.11 2.76 4.35 4.81 5.47 1 .53 4.42-1.09 4.79-2.32a9.41 9.41 0 0 0-.81-6.81c-2.17-3.47-5.06-6.47-7.64-9.65zm-78.57 2.85c4.86-3.42 5.37-12.88 1.38-19.24zm25-6.71c3.83-6.65 3.75-14.69 0-19.64v19.68z"/><path class="cls-1" d="M254.13 107.14c1-2.58 2-5.21 3.18-7.71a28.9 28.9 0 0 1 3.5-6c2.42-2.95 6.24-4.77 9.24-2.54a12 12 0 0 1 4.06 8.72c-.13 5.23-1.88 10.42-2.93 15.63-.29 1.43-.46 2.88-.69 4.33l1.29.75 10.11-13.55 1.06.53c-2.59 5.2-4.84 10.64-8 15.49-1.15 1.78-4.74 3.4-6.6 2.88s-3.71-3.78-3.9-6c-.52-6.23-.18-12.54-.18-20.11-2 2.49-4.07 4.08-4.89 6.15-2.6 6.59-4.62 13.41-7.15 20-.67 1.75-2.16 4.2-3.58 4.42-3.2.51-3.31-2.42-3.43-4.81-.09-1.8-.18-3.61-.34-6.71-2.25 3.06-3.59 5.43-5.45 7.28-2.8 2.79-5.65 5.79-9.05 7.68-7.2 4-12 1.89-18.22-7-2.34 3.49-4.24 7.49-7.19 10.43-3.15 3.14-6.4 1.49-10.25-4.58-2.39 4.54-4.92 10.11-10.68 8.48-3.27-.92-5.52-5.45-8.46-8.6-.8 1.41-2.26 3.88-3.62 6.41-2.74 5.11-7 7.21-11.85 5.77-4.15-1.24-7-5.35-5.88-10.79a182.5 182.5 0 0 1 6.49-21.95c.39-1.15 3.18-2.51 4.3-2.13 1.46.5 3.63 3.08 3.31 4-2.57 7.33 2.27 12.74 5.29 19.28a88.94 88.94 0 0 0 3.79-9.52c1.28-4.64 1.71-9.53 3.24-14.06.55-1.63 3.27-3.66 4.88-3.56 3.06.19 3.55 3.07 3 5.77-1.41 6.31-3.12 12.57-4.27 18.93-.33 1.8.84 3.88 1.33 5.83 1.89-1.09 4.61-1.73 5.48-3.36a33.8 33.8 0 0 0 3.23-10.26c.76-4.58.77-9.28 1.29-13.91.35-3.14 1.26-6.35 5.43-5.41 3.76.84 2.66 4 2.3 6.57-.88 6.25-1.86 12.48-2.61 18.74-.18 1.49.36 3.07.71 5.73 6.07-5.24 9.46-10.72 11.07-17.28 1.55-6.29 3.86-12.06 9.46-15.9 4.81-3.3 9.7-2.6 12.65 1.77s2.11 12-1.93 14.47c-1.35.82-4.14.9-5.22 0s-.68-3.38-.49-5.13c.15-1.4 1.33-2.7 1.45-4.1.31-3.64-2-5.2-5.39-3.79-5.14 2.16-7.42 11-4.57 17.72 2.3 5.41 6.65 7.06 12.8 3.73 8.25-4.47 14.68-10.08 14.46-21.16-.19-9.57 1.48-19.22 2.74-28.77a18.15 18.15 0 0 1 3.37-8.17c1.27-1.7 3.93-2.36 6-3.48.93 2 2.83 4.06 2.62 5.91-.8 7.23-2.07 14.42-3.55 21.55-1 5-2.7 9.81-4.09 14.7zm-95.09 14c-.93 5.26-2.15 9.29-2.15 13.31 0 2 1.77 4.62 3.52 5.93 1 .72 4.69-.23 5.11-1.27a9.9 9.9 0 0 0 0-6.91c-1.42-3.49-3.77-6.58-6.49-11.08zm94.29-33.46c4.81-6.32 6.15-15.6 2.76-20.85zM286.5 71.04c-1.12 2.65-1.89 4.63-2.79 6.53-1.68 3.57-4.59 6.78-8.39 5.64-3-.89-6.49-4-7.5-6.85-3.41-9.77-2.15-19.7 1.58-29.25a27.51 27.51 0 0 1 3.68-6.48 14.24 14.24 0 0 1 17.93-4.1c6.15 3 6.56 6.93.79 11.49 5.32 1.66 5.25 5.4 4.47 9.86a54.57 54.57 0 0 0-.5 11.44c.05 1.41 1.32 2.78 2 4.16 1.51-.8 3.69-1.21 4.41-2.46 2.62-4.6 4.75-9.48 7.07-14.26.33-.69.7-1.36 1.19-2.3 2.41 6.49-3.05 22-8.52 25a9.33 9.33 0 0 1-12.42-2.97c-1-1.52-1.76-3.17-3-5.45zm1.9-23.65c-5.28-3.51-7.07-3.39-10.19 1.8a36.8 36.8 0 0 0-4.81 23.93c.2 1.67 1.87 3.17 2.86 4.74 1.33-1.13 3.38-2 3.86-3.44 2.07-6.07 3.64-12.3 5.46-18.46.74-2.72 1.71-5.38 2.77-8.57zM136.09 276.49l2.68 17.76 1.8.5c1.08-1.78 2.63-3.44 3.15-5.37 1.81-6.73 3.06-13.61 5-20.31.57-2 2.57-5 4-5 3-.12 2.74 2.77 3.18 5.42.75 4.51 3 8.77 5.1 14.46l3.82-7.72.76.33c-1.73 4.41-3.18 9-5.28 13.19-2.37 4.77-8.22 5.15-13.18 1.24-6.08 9.51-8.72 10.08-14.29 2.86a10.17 10.17 0 0 1-.94 1.66c-1.79 2.11-3.34 5.47-5.52 6-3.74.84-5.62-2.8-5.84-6-.38-5.53-.64-11.23.28-16.65.75-4.39 3.9-7.68 9.2-7.49 5.81.12 7.32 2.43 6.08 5.12zm-9.91 22.65c6.25-6.34 3.36-14.16 6.66-22-2.85 1-5.41 1.05-6.05 2.2-3.35 6.05-3.99 12.39-.61 19.82zm23.41-23.86l-1.2.19c0 3.73-.38 7.51.12 11.16.41 3 2.62 4.74 5.84 3.22 3-1.4 2.85-4 1.37-6.3-1.84-2.86-4.07-5.5-6.13-8.25z"/></svg>
