<svg width="391" height="254" viewBox="0 0 391 254" xmlns="http://www.w3.org/2000/svg">
  <title>
    Liberty Church Logo
  </title>
  <path d="M236.36 82.43c3.18-1.49 5.61 2.07 6.79 4.54 3.04 5.3.86 11.51.87 17.23 8.82-4.27 19.01-4.17 28.47-2.47 4.27.97 8.75 2.37 11.87 5.62-9.33 1.17-19.2.41-28.01 4.13-6.03 2.9-11.01 7.48-16 11.85-2.11 1.85-4.44 3.69-5.58 6.34-3.35 12.99-7.62 25.74-11.62 38.55-1.82 6.17-4.43 12.39-9.21 16.88-2.2-1.75-3.54-4.37-2.73-7.21 2.92-17.25 7.51-34.16 12.17-51.01.73-1.65-.56-3.01-1.34-4.3 4.51-5.46 6.74-12.33 8.18-19.16.98-4.88 3.09-9.47 3.81-14.42.58-2.22.39-4.98 2.33-6.57zm-82.35-63.42c4 4.24 5.38 10.28 5.24 15.96-.86 7.96-4.73 15.11-7.64 22.45-4.49 12.43-9.03 24.86-13.01 37.47-1.75 5.4-2.43 11.07-3.98 16.52-2.3 6.69-5.28 13.16-7 20.04.55-.08 1.66-.23 2.22-.3 5.8-2.86 11.3-6.31 17.04-9.29 4.84-2.3 10.75-.88 14.52 2.78 3.38 2.6 4.85 6.71 5.94 10.67 4.76-9.3 10.42-18.77 19.5-24.44 6.98-4.43 16.84-5.63 23.72-.34 3.08 2.5 8.07 3.9 8.64 8.42.37 9.28-3.79 18.02-8.44 25.82-6.41 9.24-17.16 13.62-26.93 18.34-4.45 2.41-8.72-1.28-12.57-3.16-.85 4.93-1.1 10.05-.31 15 1.63 5.45 8.56 4.87 13.06 5.11 7.25.3 13.45-3.8 20.3-5.2-1.79 3.42-4.34 6.83-8.2 7.97-5.33 1.61-10.62 3.49-16.13 4.34-4.99-.02-8.68-3.87-12.17-6.94-4.86-4.23-6.79-10.84-6.74-17.1-7.15 8.81-15.44 16.77-25.02 22.9-1.94 1.22-4.16 1.88-6.22 2.84-3.24 1.69-6.05 4.59-9.86 4.89-3.44-.93-5.71-3.99-8.54-5.98-3.53 5.83-6.08 12.33-10.39 17.63-.32-2.5-.29-5.03.29-7.48 3.11-14.74 7.22-29.24 10.55-43.92 9.83-41.7 21.02-83.1 34.17-123.88 1.33-4 .73-8.6 3.11-12.24 1.58-1.34 3.67-.14 4.85 1.12zm36.39 101.46c2.67-4.57 8.29-5.47 12.89-7.06 2.12 2.11 4.1 4.99 3.15 8.14-2.28 7.77-5.67 15.57-11.73 21.16-6.22 6.02-14.06 10.02-22.02 13.22 1.18-8.63 4.5-16.84 8.89-24.32 2.65-3.93 6.17-7.2 8.82-11.14zm-42.45 12.7c2.69-.5 5.2-1.79 7.94-2.06 3.05 1.76 1.96 6.05 1.58 8.91-2.34 8.4-8.26 15.23-14.29 21.29-7.14 6.19-14.32 12.42-22.2 17.67-1.88 1.42-4.19 1.78-6.49 1.58 1.29-9.32 4.33-18.28 6.31-27.46.73-4.8 4.18-8.78 8.19-11.29 5.9-3.67 12.07-7.24 18.96-8.64zm-39.36-99.62c3.24-2.85 8.46.32 8.39 4.33.65 9.59-2.16 19.64-8.7 26.85-2.3-.78-5.47-1.79-5.51-4.76-.67-9.15 2.5-18.05 5.82-26.42zM92.03 99.9c.77-3.69 3.16-7.71 7.06-8.6 3.26-.71 5.61 2.21 7.03 4.71 2.05 2.96.52 6.6.35 9.87-.24 4.46-2.43 8.41-3.86 12.55-3.19 8.91-5.49 18.11-7.33 27.38-2.25 12.01-4.21 24.44-2.21 36.61 3.27-2.39 5.78-5.62 8.84-8.25-.23 5.48-2.22 10.84-5.6 15.16-.95 1.56-2.95 1.19-4.36.62-2.89-.99-5.89-2.56-7.4-5.34-4.49-9.49-5.05-20.35-3.56-30.62 2.55-18.24 6.91-36.16 11.04-54.09zM314.72 2.51c2.01-3.18 7.24-1.84 8.45 1.46 3.57 7.91.88 16.78-1.72 24.57-1.81 5.35-2.65 10.98-4.56 16.3-1.04 2.8-1.06 5.81-1.23 8.76 5.91-.16 11.84.06 17.73-.54 10.83-1.56 21.75.15 32.61-.41 2.26.15 5.76-.68 6.43 2.32.42 3.93-4.37 5.37-7.41 6.09-8.29 1-16.67-1.01-24.98-.05-8.67.51-17.39.51-26.04-.3-2.49 8.71-3.6 17.83-7.12 26.23-1.13 2.47-1.58 5.2-1.27 7.91-1.38 4.92-.66 11-5.22 14.4.4.37 1.21 1.1 1.62 1.46-2.13 4.27-2.11 9.32-4.91 13.29.34 2.63-.43 5.06-2.19 7.03.94 2.96.09 5.8-1.58 8.31-1.88 2.5.12 5.59-.55 8.35-.93 2.2-3.01 3.87-3.42 6.27.36 15.91-6.87 30.56-9.24 46.06.2 1.89-1.94 3.31-3.6 2.42-3.81-1.75-8.09-4.78-8.35-9.37-.55-4.11 2.63-7.37 3.68-11.14 5.13-16.04 8.64-32.54 12.22-48.98 5.83-23.83 12.13-47.55 17.06-71.59-4.02-.24-8.03-.87-12.06-.73-.51-.12-1.54-.35-2.06-.46-2.26.73-4.59.47-6.85-.1-2.7 1.22-5.53 1.07-8.18-.18-10.48 2.77-21.36.48-32.02 1.24-1.8-2.04.16-4.97 1.37-6.86 2.64-3.44 7.12-1.3 10.66-1.08 16.62 1.15 33.3-.16 49.95.32 1.73-10.03 4.55-19.83 7.35-29.61 2.16-7.03 2.74-14.51 5.43-21.39zm-15.68 84.95c1.63-.66 2.12-.13 1.48 1.59-1.64.65-2.13.12-1.48-1.59zm-14.35 58.41c.51-.07 1.53-.19 2.04-.25-.64 1.11-1.32 2.21-1.96 3.33-.04-1.03-.07-2.06-.08-3.08zm1.37-1.58c-1.9-.24-.56-3.85 1.09-2.9.55 1.28.19 2.24-1.09 2.9zm.99-6.14c-.66-3.01-.72-7.66 2.67-8.96-.12 3.16-1.2 6.19-2.67 8.96zm8.9-40.21c.79-1.01 1.6-2 2.42-2.99-.99 4.47-.6 10.55-4.98 13.22.67-3.22 1.22-6.87 4.05-8.98-.37-.31-1.12-.93-1.49-1.25zm-7.36 30.47c1.49-6.33 2.7-12.83 5.02-18.92.41 5.95-1.56 11.59-3.13 17.23l-1.89 1.69zm-.94-72.9c4.23-.16 8.49-.11 12.71.3-3.33 1.27-6.96 1.05-10.45.88-.94 0-1.7-.39-2.26-1.18zm-13.15 1.06c.35-1.63 3.38-1.21 4.54-.52-.78 1.18-3.28 1-4.54.52zm7.32-1.6c1.78.01 3.56.03 5.35.05-.05.49-.14 1.48-.18 1.98h-5.37l.2-2.03zM61.17 19.24c.56-2.51.12-6.97 3.77-6.88 3.36.8 7.18 2.94 8.11 6.53.23 2.82-.87 5.53-1.43 8.25-2.36 8.76-4.09 17.69-7.12 26.26-4.06 10.72-8.51 21.29-13.5 31.61-5.4 18.35-12.18 36.26-18.74 54.21-1.95 5.64-2.8 11.58-4.7 17.24-2.6 7.77-4.84 15.65-6.83 23.6-.94 3.95-2.5 7.79-2.62 11.91 14.91 1.6 29.94 1.56 44.91 2.26 7.52.48 15.37-1.29 22.64 1.27 2.61 1.78 3.21 5.45 2.72 8.39-1.13 2.8-4.49 2.89-7.02 3.22-7.45.63-14.91 1.13-22.38 1.45-16.33.52-33.1-2.88-49.07 1.77-3.56.67-6.4-2.39-8.11-5.13-1.76-2.31-2.26-5.44-1.29-8.18 1.05-2.86 4.07-4.48 4.93-7.42 6.72-22.07 13.19-44.22 19.86-66.3 8.3-23.26 16.69-46.49 25.04-69.73 3.96-11.32 8.32-22.58 10.83-34.33zM38.25 96.19c.16-2.32.24-5.13 2.48-6.49.05 2.44-.5 4.89-2.48 6.49zm-3.79 8.9c.93-2.1 1.25-4.75 3.28-6.12-5.88 19.16-12.41 38.12-18.48 57.22-.9 2.64-1.53 5.41-2.94 7.85-.07-4.67 2.2-8.93 3.38-13.36 5.06-15.15 9.5-30.5 14.76-45.59zm342.48-47.24c2.78-.74 5.96-2.04 8.67-.39 3.38 2.26 4.75 6.63 4.76 10.52.01 4.44-2.53 8.21-4.07 12.21-5.36 16.98-9.4 34.34-13.12 51.75-3.02 10.39-4.48 21.16-7.97 31.41-2.54 11.38-5.12 22.78-8.95 33.81-1.01 3.05-4.35 5.75-2.89 9.18-.83 2.54-1.5 5.12-2.22 7.69-3.04 7.58-7.26 14.82-13.15 20.55-1.24 3.18-3.66 5.69-6.7 7.19-1.06 2.7-3.23 4.55-6.06 5.21-.89 1.47-1.97 2.94-3.72 3.42-3.18 1.02-6.18 2.62-9.47 3.28-6.09-.57-12.68 0-17.8-4.01 5.1-4.22 11.54-6.11 17.29-9.17 7.17-4.38 13.5-10.12 18.46-16.91 10.98-13.56 16.71-30.36 20.66-47.13 4.3-16.99 7.88-34.15 11.52-51.28.41-2.08.57-4.2.78-6.31-4.05 5.88-8.86 11.21-14.04 16.11-2.42 2.23-6.13 1.36-8.65-.22-5.15-3.21-9.87-7.77-11.47-13.8-4.03-12.5-1.21-25.63 1.18-38.14 1.01-3.72-1.65-8.48 1.4-11.49 6.39-3.49 14.76 3.87 13.1 10.66-1.02 8.7-2.68 17.32-4.4 25.92-.88 4.48-1.34 9.13-.43 13.64 4.99-.98 8.35-4.93 10.79-9.1 8.48-12.68 17.33-25.45 22.16-40.06 1.87-4.71 3.28-9.59 4.34-14.54zm-15.33 86.38c-.72-3.06-.44-6.44 2.06-8.62-.06 2.98-.46 6.04-2.06 8.62zm-8.35 32.21c.78-4.37 2.03-8.65 3.42-12.86.63 7.78-2.57 15.07-4.14 22.55-3.37 13.33-6.8 27.3-15.67 38.18 1.57-7.17 5.82-13.26 8.67-19.92 1.67-3.64 1.9-7.71 3.11-11.5 1.93-5.45 2.38-11.47 5.79-16.32l-1.18-.13zm6.65-30.64c.55.96 1.39 1.99.9 3.2-.64 4.07-1.37 8.24-3.34 11.91.45-5.09 1.55-10.09 2.44-15.11zm-245.87 82.21c4.17-5.91 13.58-6.79 18.86-1.91 1.83 1.56 2.54 3.94 3.28 6.14-.72 0-2.15 0-2.87.01-1.3-5.25-7.18-8.25-12.21-6.33-10.27 3.69-9.43 22.52 1.83 24.19 5.56 1.14 10.14-3.77 10.72-8.98h2.83c-.66 3.3-1.72 6.78-4.48 8.94-5.81 4.7-15.62 2.62-18.97-4.09-2.79-5.57-2.61-12.82 1.01-17.97zm57.68-4.41c.96-.01 1.92-.02 2.88-.02.01 6.11-.08 12.23.01 18.35-.05 3.03 1.29 6.52 4.37 7.61 4.2 1.68 10.51.45 11.59-4.6.78-7.1.31-14.29.51-21.43.69.02 2.05.05 2.74.07-.04 6.47.11 12.94-.06 19.41-.08 3.49-2.05 7.01-5.33 8.45-3.65 1.63-8.11 1.58-11.7-.2-3.39-1.7-5.03-5.61-4.99-9.25-.06-6.13.03-12.26-.02-18.39zm63.6.71c6.7-3.63 16.81 0 17.7 8.14-3.54.81-3.6-3.21-5.63-4.89-4.06-3.52-11.02-2.62-14.07 1.81-3.26 4.82-3.3 11.58-.24 16.51 2.86 4.57 9.97 5.89 14.03 2.17 2.07-1.74 2.8-4.41 3.45-6.91.71-.01 2.14-.01 2.85-.02-.68 3.5-1.92 7.19-4.97 9.33-6.07 4.33-15.75 1.91-18.77-5.01-3.29-7.06-1.82-17.35 5.65-21.13zm-93.14-.62l2.98-.12c-.01 4.08-.01 8.16-.02 12.24 5.51 0 11.03 0 16.54.01-.01-4.08-.01-8.15-.02-12.22l2.87-.04c.03 9.42-.05 18.83.04 28.25-.72.07-2.16.23-2.88.3-.03-4.61-.02-9.21-.01-13.82-5.51.01-11.03.01-16.54 0 .01 4.54.01 9.08.01 13.62-.73.01-2.17.02-2.9.02-.03-9.41.1-18.83-.07-28.24zm58.92-.09c5.84.32 11.92-.89 17.58.86 5.81 2.33 5.21 11.67-.54 13.73 5.73 2.29 3.29 9.2 5.09 13.81-.79-.04-2.36-.12-3.15-.17-.94-4 .58-9.81-3.76-12.12-4.13-.57-8.34-.2-12.49-.14.09 4.12.07 8.24.06 12.37-.69-.01-2.07-.02-2.76-.02-.01-9.44.04-18.88-.03-28.32zm2.73 13.18c.08-3.56.05-7.12.09-10.69 4.24.16 8.53-.36 12.73.33 4.66 1.46 4.15 9.25-.62 10.25-4.04.54-8.15.47-12.2.11zm55.34-13.19c.73.01 2.19.02 2.92.02 0 4.06 0 8.13-.01 12.2 5.51 0 11.03-.01 16.55.02 0-4.07 0-8.13-.01-12.2l3.16-.16c-.47 9.43-.19 18.89-.25 28.33l-2.9.36c.06-4.63.03-9.25 0-13.88-5.52.03-11.05.01-16.56.02 0 3.91.11 7.82-.03 11.73-.06.55-.19 1.65-.25 2.21-.62-.09-1.85-.26-2.47-.35l-.07-.83c-.17-9.16.02-18.31-.08-27.47z" fill="#ffffff" fill-rule="evenodd"/>
</svg>
