<svg width="100" height="87" viewBox="0 0 100 87" xmlns="http://www.w3.org/2000/svg"><title>vimeo_icon_white</title><defs><path id="a" d="M.06 87H100V.334H.06z"/></defs><g fill="none" fill-rule="evenodd"><path d="M99.95 20.384c-.444 9.753-7.243 23.108-20.393 40.058C65.96 78.148 54.457 87 45.047 87c-5.826 0-10.76-5.39-14.79-16.174l-8.07-29.654c-2.994-10.778-6.203-16.174-9.634-16.174-.748 0-3.366 1.577-7.848 4.72L0 23.643c4.935-4.345 9.804-8.69 14.594-13.04C21.176 4.907 26.117 1.91 29.41 1.607c7.783-.75 12.573 4.58 14.37 15.99 1.944 12.31 3.288 19.968 4.044 22.965 2.243 10.214 4.71 15.314 7.408 15.314 2.093 0 5.237-3.312 9.43-9.936 4.187-6.626 6.43-11.667 6.733-15.13.596-5.718-1.648-8.584-6.734-8.584-2.393 0-4.86.552-7.4 1.643C62.174 7.737 71.564-.095 85.424.352c10.275.302 15.12 6.98 14.527 20.032" fill="#FFF"/></g></svg>